# Created by Kenney (www.kenney.nl)

mtllib spaceship.mtl

v 1 10 1
v 1 10 -1
v -1 10 1
v -1 10 -1
v -1 11 -1
v -1 11 1
v 1 11 -1
v 1 11 1
v 0 10 1
v 0 10 -1
v 0 11 -1
v 0 11 1
v 2 7 2
v 2 7 -2
v 1 7 2
v 1 7 -2
v 1 10 -2
v 1 10 2
v 2 10 -2
v 2 10 2
v 1 9 2
v 1 9 -2
v -2 9 2
v -2 9 -2
v -2 10 -2
v -2 10 2
v 1 6 3
v 1 6 -3
v -1 6 3
v -1 6 -3
v -1 9 -3
v -1 9 3
v 1 9 -3
v 1 9 3
v -1 7 2
v -1 7 -2
v -2 7 2
v -2 7 -2
v -1 9 -2
v -1 9 2
v 3 6 2
v 3 6 -2
v 2 6 2
v 2 6 -2
v 3 7 -2
v 3 7 2
v 2 -7 3
v 2 -7 -3
v 1 -7 3
v 1 -7 -3
v 1 7 -3
v 1 7 3
v 2 7 -3
v 2 7 3
v -1 -7 3
v -1 -7 -3
v -2 -7 3
v -2 -7 -3
v -2 7 -3
v -2 7 3
v -1 7 -3
v -1 7 3
v -2 6 2
v -2 6 -2
v -3 6 2
v -3 6 -2
v -3 7 -2
v -3 7 2
v 3 -7 3
v 3 -7 -3
v 2 6 -3
v 2 6 3
v 3 6 -3
v 3 6 3
v 1 0 4
v 1 0 -4
v -1 0 4
v -1 0 -4
v -1 6 -4
v -1 6 4
v 1 6 -4
v 1 6 4
v -3 -7 3
v -3 -7 -3
v -3 6 -3
v -3 6 3
v -2 6 -3
v -2 6 3
v 4 -9 2
v 4 -9 -2
v 3 -9 2
v 3 -9 -2
v 3 0 -2
v 3 0 2
v 4 0 -2
v 4 0 2
v -1 0 -3
v -1 0 3
v 1 0 -3
v 1 0 3
v -3 -9 2
v -3 -9 -2
v -4 -9 2
v -4 -9 -2
v -4 0 -2
v -4 0 2
v -3 0 -2
v -3 0 2
v 5 -11 1
v 5 -11 -1
v 4 -11 1
v 4 -11 -1
v 4 -1 -1
v 4 -1 1
v 5 -1 -1
v 5 -1 1
v -4 -11 1
v -4 -11 -1
v -5 -11 1
v -5 -11 -1
v -5 -1 -1
v -5 -1 1
v -4 -1 -1
v -4 -1 1
v 6 -11 1
v 6 -11 -1
v 5 -2 -1
v 5 -2 1
v 6 -2 -1
v 6 -2 1
v -6 -11 1
v -6 -11 -1
v -6 -2 -1
v -6 -2 1
v -5 -2 -1
v -5 -2 1
v 7 -11 1
v 7 -11 -1
v 6 -4 -1
v 6 -4 1
v 7 -4 -1
v 7 -4 1
v -7 -11 1
v -7 -11 -1
v -7 -4 -1
v -7 -4 1
v -6 -4 -1
v -6 -4 1
v 9 -11 1
v 9 -11 -1
v 7 -5 -1
v 7 -5 1
v 9 -5 -1
v 9 -5 1
v -9 -11 1
v -9 -11 -1
v -9 -5 -1
v -9 -5 1
v -7 -5 -1
v -7 -5 1
v 11 -11 0.5
v 11 -11 -0.5
v 9 -11 0.5
v 9 -11 -0.5
v 9 -7 -0.5
v 9 -7 0.5
v 11 -7 -0.5
v 11 -7 0.5
v 3 -8 2
v 3 -8 -2
v -3 -8 2
v -3 -8 -2
v -3 -7 -2
v -3 -7 2
v 3 -7 -2
v 3 -7 2
v -9 -11 0.5
v -9 -11 -0.5
v -11 -11 0.5
v -11 -11 -0.5
v -11 -7 -0.5
v -11 -7 0.5
v -9 -7 -0.5
v -9 -7 0.5
v 3 -9 4
v 3 -9 -4
v 2 -9 4
v 2 -9 -4
v 2 -8 -4
v 2 -8 4
v 3 -8 -4
v 3 -8 4
v -2 -9 4
v -2 -9 -4
v -2 -8 -4
v -2 -8 4
v -3 -9 4
v -3 -9 -4
v -3 -8 -4
v -3 -8 4
v 12 -11 0.5
v 12 -11 -0.5
v 11 -9 -0.5
v 11 -9 0.5
v 12 -9 -0.5
v 12 -9 0.5
v 4 -10 1.5
v 4 -10 -1.5
v 3 -10 1.5
v 3 -10 -1.5
v 3 -9 -1.5
v 3 -9 1.5
v 4 -9 -1.5
v 4 -9 1.5
v -3 -10 1.5
v -3 -10 -1.5
v -4 -10 1.5
v -4 -10 -1.5
v -4 -9 -1.5
v -4 -9 1.5
v -3 -9 -1.5
v -3 -9 1.5
v -12 -11 0.5
v -12 -11 -0.5
v -12 -9 -0.5
v -12 -9 0.5
v -11 -9 -0.5
v -11 -9 0.5

vn 0 -1 0
vn -1 0 0
vn 0 0 -1
vn 0 0 1
vn 1 0 0
vn 0 1 0

vt 0.3645833 0.390625
vt 0.3645833 0.3697917
vt 0.3854167 0.390625
vt 0.3854167 0.3697917
vt 0.3697917 0.7291667
vt 0.3697917 0.7395833
vt 0.390625 0.7291667
vt 0.390625 0.7395833
vt 0.1354167 0.7291667
vt 0.1145833 0.7291667
vt 0.1354167 0.7395833
vt 0.1145833 0.7395833
vt 0.6354167 0.7291667
vt 0.6145833 0.7291667
vt 0.6354167 0.7395833
vt 0.6145833 0.7395833
vt 0.8697917 0.7395833
vt 0.8697917 0.7291667
vt 0.890625 0.7395833
vt 0.890625 0.7291667
vt 0.3645833 0.8697917
vt 0.3645833 0.890625
vt 0.3854167 0.8697917
vt 0.3854167 0.890625
vt 0.375 0.390625
vt 0.375 0.3697917
vt 0.125 0.7291667
vt 0.125 0.7395833
vt 0.625 0.7291667
vt 0.625 0.7395833
vt 0.375 0.8697917
vt 0.375 0.890625
vt 0.3541667 0.4010417
vt 0.3541667 0.359375
vt 0.3645833 0.4010417
vt 0.3645833 0.359375
vt 0.359375 0.6979167
vt 0.359375 0.7291667
vt 0.4010417 0.6979167
vt 0.4010417 0.7291667
vt 0.1145833 0.6979167
vt 0.1041667 0.6979167
vt 0.1041667 0.7291667
vt 0.6458333 0.6979167
vt 0.6354167 0.6979167
vt 0.6458333 0.7291667
vt 0.859375 0.7291667
vt 0.859375 0.6979167
vt 0.9010417 0.7291667
vt 0.9010417 0.6979167
vt 0.3541667 0.859375
vt 0.3541667 0.9010417
vt 0.3645833 0.859375
vt 0.3645833 0.9010417
vt 0.3958333 0.4010417
vt 0.3958333 0.359375
vt 0.359375 0.71875
vt 0.4010417 0.71875
vt 0.1458333 0.71875
vt 0.1145833 0.71875
vt 0.1458333 0.7291667
vt 0.6354167 0.71875
vt 0.6041667 0.71875
vt 0.6041667 0.7291667
vt 0.859375 0.71875
vt 0.9010417 0.71875
vt 0.3958333 0.859375
vt 0.3958333 0.9010417
vt 0.3645833 0.4114583
vt 0.3645833 0.3489583
vt 0.3854167 0.4114583
vt 0.3854167 0.3489583
vt 0.3489583 0.6875
vt 0.3489583 0.71875
vt 0.4114583 0.6875
vt 0.4114583 0.71875
vt 0.1354167 0.6875
vt 0.1145833 0.6875
vt 0.1354167 0.71875
vt 0.6354167 0.6875
vt 0.6145833 0.6875
vt 0.6145833 0.71875
vt 0.8489583 0.71875
vt 0.8489583 0.6875
vt 0.9114583 0.71875
vt 0.9114583 0.6875
vt 0.3645833 0.8489583
vt 0.3645833 0.9114583
vt 0.3854167 0.8489583
vt 0.3854167 0.9114583
vt 0.3854167 0.4010417
vt 0.3854167 0.359375
vt 0.1458333 0.6979167
vt 0.1354167 0.6979167
vt 0.6145833 0.6979167
vt 0.6041667 0.6979167
vt 0.3854167 0.859375
vt 0.3854167 0.9010417
vt 0.34375 0.4010417
vt 0.34375 0.359375
vt 0.359375 0.6875
vt 0.4010417 0.6875
vt 0.1041667 0.6875
vt 0.09375 0.6875
vt 0.09375 0.6979167
vt 0.65625 0.6875
vt 0.6458333 0.6875
vt 0.65625 0.6979167
vt 0.859375 0.6875
vt 0.9010417 0.6875
vt 0.34375 0.859375
vt 0.34375 0.9010417
vt 0.3541667 0.4114583
vt 0.3541667 0.3489583
vt 0.3489583 0.5520833
vt 0.3489583 0.6979167
vt 0.4114583 0.5520833
vt 0.4114583 0.6979167
vt 0.1145833 0.5520833
vt 0.1041667 0.5520833
vt 0.6458333 0.5520833
vt 0.6354167 0.5520833
vt 0.8489583 0.6979167
vt 0.8489583 0.5520833
vt 0.9114583 0.6979167
vt 0.9114583 0.5520833
vt 0.3541667 0.8489583
vt 0.3541667 0.9114583
vt 0.3958333 0.4114583
vt 0.3958333 0.3489583
vt 0.1458333 0.5520833
vt 0.1354167 0.5520833
vt 0.6145833 0.5520833
vt 0.6041667 0.5520833
vt 0.3958333 0.8489583
vt 0.3958333 0.9114583
vt 0.40625 0.4010417
vt 0.40625 0.359375
vt 0.15625 0.6875
vt 0.1458333 0.6875
vt 0.15625 0.6979167
vt 0.6041667 0.6875
vt 0.59375 0.6875
vt 0.59375 0.6979167
vt 0.40625 0.859375
vt 0.40625 0.9010417
vt 0.34375 0.4114583
vt 0.34375 0.3489583
vt 0.09375 0.5520833
vt 0.65625 0.5520833
vt 0.34375 0.8489583
vt 0.34375 0.9114583
vt 0.3645833 0.421875
vt 0.3645833 0.3385417
vt 0.3854167 0.421875
vt 0.3854167 0.3385417
vt 0.3385417 0.625
vt 0.3385417 0.6875
vt 0.421875 0.625
vt 0.421875 0.6875
vt 0.1354167 0.625
vt 0.1145833 0.625
vt 0.6354167 0.625
vt 0.6145833 0.625
vt 0.8385417 0.6875
vt 0.8385417 0.625
vt 0.921875 0.6875
vt 0.921875 0.625
vt 0.3645833 0.8385417
vt 0.3645833 0.921875
vt 0.3854167 0.8385417
vt 0.3854167 0.921875
vt 0.40625 0.4114583
vt 0.40625 0.3489583
vt 0.15625 0.5520833
vt 0.59375 0.5520833
vt 0.40625 0.8489583
vt 0.40625 0.9114583
vt 0.3333333 0.4010417
vt 0.3333333 0.359375
vt 0.359375 0.53125
vt 0.359375 0.625
vt 0.4010417 0.53125
vt 0.4010417 0.625
vt 0.09375 0.53125
vt 0.08333334 0.53125
vt 0.09375 0.625
vt 0.08333334 0.625
vt 0.6666667 0.53125
vt 0.65625 0.53125
vt 0.6666667 0.625
vt 0.65625 0.625
vt 0.859375 0.625
vt 0.859375 0.53125
vt 0.9010417 0.625
vt 0.9010417 0.53125
vt 0.3333333 0.859375
vt 0.3333333 0.9010417
vt 0.3489583 0.625
vt 0.4114583 0.625
vt 0.8489583 0.625
vt 0.9114583 0.625
vt 0.4166667 0.4010417
vt 0.4166667 0.359375
vt 0.1666667 0.53125
vt 0.15625 0.53125
vt 0.1666667 0.625
vt 0.15625 0.625
vt 0.59375 0.53125
vt 0.5833333 0.53125
vt 0.59375 0.625
vt 0.5833333 0.625
vt 0.4166667 0.859375
vt 0.4166667 0.9010417
vt 0.3229167 0.390625
vt 0.3229167 0.3697917
vt 0.3333333 0.390625
vt 0.3333333 0.3697917
vt 0.3697917 0.5104167
vt 0.3697917 0.6145833
vt 0.390625 0.5104167
vt 0.390625 0.6145833
vt 0.08333334 0.5104167
vt 0.07291666 0.5104167
vt 0.08333334 0.6145833
vt 0.07291666 0.6145833
vt 0.6770833 0.5104167
vt 0.6666667 0.5104167
vt 0.6770833 0.6145833
vt 0.6666667 0.6145833
vt 0.8697917 0.6145833
vt 0.8697917 0.5104167
vt 0.890625 0.6145833
vt 0.890625 0.5104167
vt 0.3229167 0.8697917
vt 0.3229167 0.890625
vt 0.3333333 0.8697917
vt 0.3333333 0.890625
vt 0.4166667 0.390625
vt 0.4166667 0.3697917
vt 0.4270833 0.390625
vt 0.4270833 0.3697917
vt 0.1770833 0.5104167
vt 0.1666667 0.5104167
vt 0.1770833 0.6145833
vt 0.1666667 0.6145833
vt 0.5833333 0.5104167
vt 0.5729167 0.5104167
vt 0.5833333 0.6145833
vt 0.5729167 0.6145833
vt 0.4166667 0.8697917
vt 0.4166667 0.890625
vt 0.4270833 0.8697917
vt 0.4270833 0.890625
vt 0.3125 0.390625
vt 0.3125 0.3697917
vt 0.3697917 0.6041667
vt 0.390625 0.6041667
vt 0.0625 0.5104167
vt 0.07291666 0.6041667
vt 0.0625 0.6041667
vt 0.6875 0.5104167
vt 0.6875 0.6041667
vt 0.6770833 0.6041667
vt 0.8697917 0.6041667
vt 0.890625 0.6041667
vt 0.3125 0.8697917
vt 0.3125 0.890625
vt 0.4375 0.390625
vt 0.4375 0.3697917
vt 0.1875 0.5104167
vt 0.1875 0.6041667
vt 0.1770833 0.6041667
vt 0.5625 0.5104167
vt 0.5729167 0.6041667
vt 0.5625 0.6041667
vt 0.4375 0.8697917
vt 0.4375 0.890625
vt 0.3020833 0.390625
vt 0.3020833 0.3697917
vt 0.3697917 0.5833333
vt 0.390625 0.5833333
vt 0.05208333 0.5104167
vt 0.0625 0.5833333
vt 0.05208333 0.5833333
vt 0.6979167 0.5104167
vt 0.6979167 0.5833333
vt 0.6875 0.5833333
vt 0.8697917 0.5833333
vt 0.890625 0.5833333
vt 0.3020833 0.8697917
vt 0.3020833 0.890625
vt 0.4479167 0.390625
vt 0.4479167 0.3697917
vt 0.1979167 0.5104167
vt 0.1979167 0.5833333
vt 0.1875 0.5833333
vt 0.5520833 0.5104167
vt 0.5625 0.5833333
vt 0.5520833 0.5833333
vt 0.4479167 0.8697917
vt 0.4479167 0.890625
vt 0.28125 0.390625
vt 0.28125 0.3697917
vt 0.3697917 0.5729167
vt 0.390625 0.5729167
vt 0.03125 0.5104167
vt 0.05208333 0.5729167
vt 0.03125 0.5729167
vt 0.71875 0.5104167
vt 0.71875 0.5729167
vt 0.6979167 0.5729167
vt 0.8697917 0.5729167
vt 0.890625 0.5729167
vt 0.28125 0.8697917
vt 0.28125 0.890625
vt 0.46875 0.390625
vt 0.46875 0.3697917
vt 0.21875 0.5104167
vt 0.21875 0.5729167
vt 0.1979167 0.5729167
vt 0.53125 0.5104167
vt 0.5520833 0.5729167
vt 0.53125 0.5729167
vt 0.46875 0.8697917
vt 0.46875 0.890625
vt 0.2604167 0.3854167
vt 0.2604167 0.375
vt 0.28125 0.3854167
vt 0.28125 0.375
vt 0.375 0.5104167
vt 0.375 0.5520833
vt 0.3854167 0.5104167
vt 0.3854167 0.5520833
vt 0.01041667 0.5104167
vt 0.03125 0.5520833
vt 0.01041667 0.5520833
vt 0.7395833 0.5104167
vt 0.7395833 0.5520833
vt 0.71875 0.5520833
vt 0.875 0.5520833
vt 0.875 0.5104167
vt 0.8854167 0.5520833
vt 0.8854167 0.5104167
vt 0.2604167 0.875
vt 0.2604167 0.8854167
vt 0.28125 0.875
vt 0.28125 0.8854167
vt 0.359375 0.5416667
vt 0.359375 0.5520833
vt 0.4010417 0.5416667
vt 0.4010417 0.5520833
vt 0.15625 0.5416667
vt 0.09375 0.5416667
vt 0.65625 0.5416667
vt 0.59375 0.5416667
vt 0.859375 0.5520833
vt 0.859375 0.5416667
vt 0.9010417 0.5520833
vt 0.9010417 0.5416667
vt 0.46875 0.3854167
vt 0.46875 0.375
vt 0.4895833 0.3854167
vt 0.4895833 0.375
vt 0.2395833 0.5104167
vt 0.2395833 0.5520833
vt 0.21875 0.5520833
vt 0.5104167 0.5104167
vt 0.53125 0.5520833
vt 0.5104167 0.5520833
vt 0.46875 0.875
vt 0.46875 0.8854167
vt 0.4895833 0.875
vt 0.4895833 0.8854167
vt 0.34375 0.421875
vt 0.34375 0.3385417
vt 0.3541667 0.421875
vt 0.3541667 0.3385417
vt 0.3385417 0.53125
vt 0.3385417 0.5416667
vt 0.421875 0.53125
vt 0.421875 0.5416667
vt 0.1041667 0.53125
vt 0.1041667 0.5416667
vt 0.6458333 0.53125
vt 0.6458333 0.5416667
vt 0.8385417 0.5416667
vt 0.8385417 0.53125
vt 0.921875 0.5416667
vt 0.921875 0.53125
vt 0.34375 0.8385417
vt 0.34375 0.921875
vt 0.3541667 0.8385417
vt 0.3541667 0.921875
vt 0.3958333 0.421875
vt 0.3958333 0.3385417
vt 0.1458333 0.53125
vt 0.1458333 0.5416667
vt 0.6041667 0.53125
vt 0.6041667 0.5416667
vt 0.3958333 0.8385417
vt 0.3958333 0.921875
vt 0.40625 0.421875
vt 0.40625 0.3385417
vt 0.40625 0.8385417
vt 0.40625 0.921875
vt 0.25 0.3854167
vt 0.25 0.375
vt 0.375 0.53125
vt 0.3854167 0.53125
vt 0 0.5104167
vt 0.01041667 0.53125
vt 0 0.53125
vt 0.75 0.5104167
vt 0.75 0.53125
vt 0.7395833 0.53125
vt 0.875 0.53125
vt 0.8854167 0.53125
vt 0.25 0.875
vt 0.25 0.8854167
vt 0.3333333 0.3958333
vt 0.3333333 0.3645833
vt 0.34375 0.3958333
vt 0.34375 0.3645833
vt 0.3645833 0.5208333
vt 0.3645833 0.53125
vt 0.3958333 0.5208333
vt 0.3958333 0.53125
vt 0.09375 0.5208333
vt 0.08333334 0.5208333
vt 0.6666667 0.5208333
vt 0.65625 0.5208333
vt 0.8645833 0.53125
vt 0.8645833 0.5208333
vt 0.8958333 0.53125
vt 0.8958333 0.5208333
vt 0.3333333 0.8645833
vt 0.3333333 0.8958333
vt 0.34375 0.8645833
vt 0.34375 0.8958333
vt 0.40625 0.3958333
vt 0.40625 0.3645833
vt 0.4166667 0.3958333
vt 0.4166667 0.3645833
vt 0.1666667 0.5208333
vt 0.15625 0.5208333
vt 0.59375 0.5208333
vt 0.5833333 0.5208333
vt 0.40625 0.8645833
vt 0.40625 0.8958333
vt 0.4166667 0.8645833
vt 0.4166667 0.8958333
vt 0.5 0.3854167
vt 0.5 0.375
vt 0.25 0.5104167
vt 0.25 0.53125
vt 0.2395833 0.53125
vt 0.5 0.5104167
vt 0.5104167 0.53125
vt 0.5 0.53125
vt 0.5 0.875
vt 0.5 0.8854167

usemtl spaceship

f 3/3/1 2/2/1 1/1/1
f 2/2/1 3/3/1 4/4/1
f 3/7/2 5/6/2 4/5/2
f 5/6/2 3/7/2 6/8/2
f 5/11/3 2/10/3 4/9/3
f 2/10/3 5/11/3 7/12/3
f 8/15/4 3/14/4 1/13/4
f 3/14/4 8/15/4 6/16/4
f 8/19/5 2/18/5 7/17/5
f 2/18/5 8/19/5 1/20/5
f 5/23/6 8/22/6 7/21/6
f 8/22/6 5/23/6 6/24/6
f 9/25/1 2/2/1 1/1/1
f 2/2/1 9/25/1 10/26/1
f 9/7/2 11/6/2 10/5/2
f 11/6/2 9/7/2 12/8/2
f 11/28/3 2/10/3 10/27/3
f 2/10/3 11/28/3 7/12/3
f 8/15/4 9/29/4 1/13/4
f 9/29/4 8/15/4 12/30/4
f 8/19/5 2/18/5 7/17/5
f 2/18/5 8/19/5 1/20/5
f 11/31/6 8/22/6 7/21/6
f 8/22/6 11/31/6 12/32/6
f 15/35/1 14/34/1 13/33/1
f 14/34/1 15/35/1 16/36/1
f 15/39/2 17/38/2 16/37/2
f 17/38/2 15/39/2 18/40/2
f 17/10/3 14/42/3 16/41/3
f 14/42/3 17/10/3 19/43/3
f 20/46/4 15/45/4 13/44/4
f 15/45/4 20/46/4 18/13/4
f 20/49/5 14/48/5 19/47/5
f 14/48/5 20/49/5 13/50/5
f 17/53/6 20/52/6 19/51/6
f 20/52/6 17/53/6 18/54/6
f 23/55/1 22/36/1 21/35/1
f 22/36/1 23/55/1 24/56/1
f 23/58/2 25/38/2 24/57/2
f 25/38/2 23/58/2 26/40/2
f 25/61/3 22/60/3 24/59/3
f 22/60/3 25/61/3 17/10/3
f 18/13/4 23/63/4 21/62/4
f 23/63/4 18/13/4 26/64/4
f 18/49/5 22/65/5 17/47/5
f 22/65/5 18/49/5 21/66/5
f 25/67/6 18/54/6 17/53/6
f 18/54/6 25/67/6 26/68/6
f 29/71/1 28/70/1 27/69/1
f 28/70/1 29/71/1 30/72/1
f 29/75/2 31/74/2 30/73/2
f 31/74/2 29/75/2 32/76/2
f 31/79/3 28/78/3 30/77/3
f 28/78/3 31/79/3 33/60/3
f 34/62/4 29/81/4 27/80/4
f 29/81/4 34/62/4 32/82/4
f 34/85/5 28/84/5 33/83/5
f 28/84/5 34/85/5 27/86/5
f 31/89/6 34/88/6 33/87/6
f 34/88/6 31/89/6 32/90/6
f 37/55/1 36/92/1 35/91/1
f 36/92/1 37/55/1 38/56/1
f 37/39/2 24/57/2 38/37/2
f 24/57/2 37/39/2 23/58/2
f 24/59/3 36/94/3 38/93/3
f 36/94/3 24/59/3 39/79/3
f 40/82/4 37/96/4 35/95/4
f 37/96/4 40/82/4 23/63/4
f 40/66/5 36/48/5 39/65/5
f 36/48/5 40/66/5 35/50/5
f 24/67/6 40/98/6 39/97/6
f 40/98/6 24/67/6 23/68/6
f 43/33/1 42/100/1 41/99/1
f 42/100/1 43/33/1 44/34/1
f 43/102/2 14/37/2 44/101/2
f 14/37/2 43/102/2 13/39/2
f 14/42/3 42/104/3 44/103/3
f 42/104/3 14/42/3 45/105/3
f 46/108/4 43/107/4 41/106/4
f 43/107/4 46/108/4 13/44/4
f 46/50/5 42/109/5 45/48/5
f 42/109/5 46/50/5 41/110/5
f 14/51/6 46/112/6 45/111/6
f 46/112/6 14/51/6 13/52/6
f 49/69/1 48/114/1 47/113/1
f 48/114/1 49/69/1 50/70/1
f 49/117/2 51/116/2 50/115/2
f 51/116/2 49/117/2 52/118/2
f 51/41/3 48/120/3 50/119/3
f 48/120/3 51/41/3 53/42/3
f 54/44/4 49/122/4 47/121/4
f 49/122/4 54/44/4 52/45/4
f 54/125/5 48/124/5 53/123/5
f 48/124/5 54/125/5 47/126/5
f 51/87/6 54/128/6 53/127/6
f 54/128/6 51/87/6 52/88/6
f 57/129/1 56/72/1 55/71/1
f 56/72/1 57/129/1 58/130/1
f 57/117/2 59/116/2 58/115/2
f 59/116/2 57/117/2 60/118/2
f 59/93/3 56/132/3 58/131/3
f 56/132/3 59/93/3 61/94/3
f 62/95/4 57/134/4 55/133/4
f 57/134/4 62/95/4 60/96/4
f 62/125/5 56/124/5 61/123/5
f 56/124/5 62/125/5 55/126/5
f 59/135/6 62/90/6 61/89/6
f 62/90/6 59/135/6 60/136/6
f 65/137/1 64/56/1 63/55/1
f 64/56/1 65/137/1 66/138/1
f 65/102/2 67/37/2 66/101/2
f 67/37/2 65/102/2 68/39/2
f 67/141/3 64/140/3 66/139/3
f 64/140/3 67/141/3 38/93/3
f 37/96/4 65/143/4 63/142/4
f 65/143/4 37/96/4 68/144/4
f 37/50/5 64/109/5 38/48/5
f 64/109/5 37/50/5 63/110/5
f 67/145/6 37/68/6 38/67/6
f 37/68/6 67/145/6 68/146/6
f 47/113/1 70/148/1 69/147/1
f 70/148/1 47/113/1 48/114/1
f 47/117/2 71/73/2 48/115/2
f 71/73/2 47/117/2 72/75/2
f 71/103/3 70/149/3 48/120/3
f 70/149/3 71/103/3 73/104/3
f 74/106/4 47/121/4 69/150/4
f 47/121/4 74/106/4 72/107/4
f 74/86/5 70/124/5 73/84/5
f 70/124/5 74/86/5 69/126/5
f 71/127/6 74/152/6 73/151/6
f 74/152/6 71/127/6 72/128/6
f 77/155/1 76/154/1 75/153/1
f 76/154/1 77/155/1 78/156/1
f 77/159/2 79/158/2 78/157/2
f 79/158/2 77/159/2 80/160/2
f 79/77/3 76/162/3 78/161/3
f 76/162/3 79/77/3 81/78/3
f 82/80/4 77/164/4 75/163/4
f 77/164/4 82/80/4 80/81/4
f 82/167/5 76/166/5 81/165/5
f 76/166/5 82/167/5 75/168/5
f 79/171/6 82/170/6 81/169/6
f 82/170/6 79/171/6 80/172/6
f 83/173/1 58/130/1 57/129/1
f 58/130/1 83/173/1 84/174/1
f 83/117/2 85/73/2 84/115/2
f 85/73/2 83/117/2 86/75/2
f 85/139/3 58/131/3 84/175/3
f 58/131/3 85/139/3 87/140/3
f 88/142/4 83/176/4 57/134/4
f 83/176/4 88/142/4 86/143/4
f 88/86/5 58/124/5 87/84/5
f 58/124/5 88/86/5 57/126/5
f 85/177/6 88/136/6 87/135/6
f 88/136/6 85/177/6 86/178/6
f 91/99/1 90/180/1 89/179/1
f 90/180/1 91/99/1 92/100/1
f 91/183/2 93/182/2 92/181/2
f 93/182/2 91/183/2 94/184/2
f 93/187/3 90/186/3 92/185/3
f 90/186/3 93/187/3 95/188/3
f 96/191/4 91/190/4 89/189/4
f 91/190/4 96/191/4 94/192/4
f 96/195/5 90/194/5 95/193/5
f 90/194/5 96/195/5 89/196/5
f 93/111/6 96/198/6 95/197/6
f 96/198/6 93/111/6 94/112/6
f 55/71/1 50/70/1 49/69/1
f 50/70/1 55/71/1 56/72/1
f 55/117/2 97/199/2 56/115/2
f 97/199/2 55/117/2 98/200/2
f 97/161/3 50/119/3 56/132/3
f 50/119/3 97/161/3 99/162/3
f 100/163/4 55/133/4 49/122/4
f 55/133/4 100/163/4 98/164/4
f 100/202/5 50/124/5 99/201/5
f 50/124/5 100/202/5 49/126/5
f 97/89/6 100/88/6 99/87/6
f 100/88/6 97/89/6 98/90/6
f 103/203/1 102/138/1 101/137/1
f 102/138/1 103/203/1 104/204/1
f 103/183/2 105/182/2 104/181/2
f 105/182/2 103/183/2 106/184/2
f 105/207/3 102/206/3 104/205/3
f 102/206/3 105/207/3 107/208/3
f 108/211/4 103/210/4 101/209/4
f 103/210/4 108/211/4 106/212/4
f 108/195/5 102/194/5 107/193/5
f 102/194/5 108/195/5 101/196/5
f 105/213/6 108/146/6 107/145/6
f 108/146/6 105/213/6 106/214/6
f 111/217/1 110/216/1 109/215/1
f 110/216/1 111/217/1 112/218/1
f 111/221/2 113/220/2 112/219/2
f 113/220/2 111/221/2 114/222/2
f 113/225/3 110/224/3 112/223/3
f 110/224/3 113/225/3 115/226/3
f 116/229/4 111/228/4 109/227/4
f 111/228/4 116/229/4 114/230/4
f 116/233/5 110/232/5 115/231/5
f 110/232/5 116/233/5 109/234/5
f 113/237/6 116/236/6 115/235/6
f 116/236/6 113/237/6 114/238/6
f 119/241/1 118/240/1 117/239/1
f 118/240/1 119/241/1 120/242/1
f 119/221/2 121/220/2 120/219/2
f 121/220/2 119/221/2 122/222/2
f 121/245/3 118/244/3 120/243/3
f 118/244/3 121/245/3 123/246/3
f 124/249/4 119/248/4 117/247/4
f 119/248/4 124/249/4 122/250/4
f 124/233/5 118/232/5 123/231/5
f 118/232/5 124/233/5 117/234/5
f 121/253/6 124/252/6 123/251/6
f 124/252/6 121/253/6 122/254/6
f 109/215/1 126/256/1 125/255/1
f 126/256/1 109/215/1 110/216/1
f 109/221/2 127/257/2 110/219/2
f 127/257/2 109/221/2 128/258/2
f 127/260/3 126/259/3 110/224/3
f 126/259/3 127/260/3 129/261/3
f 130/263/4 109/227/4 125/262/4
f 109/227/4 130/263/4 128/264/4
f 130/266/5 126/232/5 129/265/5
f 126/232/5 130/266/5 125/234/5
f 127/235/6 130/268/6 129/267/6
f 130/268/6 127/235/6 128/236/6
f 131/269/1 120/242/1 119/241/1
f 120/242/1 131/269/1 132/270/1
f 131/221/2 133/257/2 132/219/2
f 133/257/2 131/221/2 134/258/2
f 133/272/3 120/243/3 132/271/3
f 120/243/3 133/272/3 135/273/3
f 136/275/4 131/274/4 119/248/4
f 131/274/4 136/275/4 134/276/4
f 136/266/5 120/232/5 135/265/5
f 120/232/5 136/266/5 119/234/5
f 133/277/6 136/254/6 135/253/6
f 136/254/6 133/277/6 134/278/6
f 125/255/1 138/280/1 137/279/1
f 138/280/1 125/255/1 126/256/1
f 125/221/2 139/281/2 126/219/2
f 139/281/2 125/221/2 140/282/2
f 139/284/3 138/283/3 126/259/3
f 138/283/3 139/284/3 141/285/3
f 142/287/4 125/262/4 137/286/4
f 125/262/4 142/287/4 140/288/4
f 142/290/5 138/232/5 141/289/5
f 138/232/5 142/290/5 137/234/5
f 139/267/6 142/292/6 141/291/6
f 142/292/6 139/267/6 140/268/6
f 143/293/1 132/270/1 131/269/1
f 132/270/1 143/293/1 144/294/1
f 143/221/2 145/281/2 144/219/2
f 145/281/2 143/221/2 146/282/2
f 145/296/3 132/271/3 144/295/3
f 132/271/3 145/296/3 147/297/3
f 148/299/4 143/298/4 131/274/4
f 143/298/4 148/299/4 146/300/4
f 148/290/5 132/232/5 147/289/5
f 132/232/5 148/290/5 131/234/5
f 145/301/6 148/278/6 147/277/6
f 148/278/6 145/301/6 146/302/6
f 137/279/1 150/304/1 149/303/1
f 150/304/1 137/279/1 138/280/1
f 137/221/2 151/305/2 138/219/2
f 151/305/2 137/221/2 152/306/2
f 151/308/3 150/307/3 138/283/3
f 150/307/3 151/308/3 153/309/3
f 154/311/4 137/286/4 149/310/4
f 137/286/4 154/311/4 152/312/4
f 154/314/5 150/232/5 153/313/5
f 150/232/5 154/314/5 149/234/5
f 151/291/6 154/316/6 153/315/6
f 154/316/6 151/291/6 152/292/6
f 155/317/1 144/294/1 143/293/1
f 144/294/1 155/317/1 156/318/1
f 155/221/2 157/305/2 156/219/2
f 157/305/2 155/221/2 158/306/2
f 157/320/3 144/295/3 156/319/3
f 144/295/3 157/320/3 159/321/3
f 160/323/4 155/322/4 143/298/4
f 155/322/4 160/323/4 158/324/4
f 160/314/5 144/232/5 159/313/5
f 144/232/5 160/314/5 143/234/5
f 157/325/6 160/302/6 159/301/6
f 160/302/6 157/325/6 158/326/6
f 163/329/1 162/328/1 161/327/1
f 162/328/1 163/329/1 164/330/1
f 163/333/2 165/332/2 164/331/2
f 165/332/2 163/333/2 166/334/2
f 165/336/3 162/335/3 164/307/3
f 162/335/3 165/336/3 167/337/3
f 168/339/4 163/310/4 161/338/4
f 163/310/4 168/339/4 166/340/4
f 168/343/5 162/342/5 167/341/5
f 162/342/5 168/343/5 161/344/5
f 165/347/6 168/346/6 167/345/6
f 168/346/6 165/347/6 166/348/6
f 171/137/1 170/100/1 169/99/1
f 170/100/1 171/137/1 172/138/1
f 171/351/2 173/350/2 172/349/2
f 173/350/2 171/351/2 174/352/2
f 173/175/3 170/354/3 172/353/3
f 170/354/3 173/175/3 175/149/3
f 176/150/4 171/356/4 169/355/4
f 171/356/4 176/150/4 174/176/4
f 176/359/5 170/358/5 175/357/5
f 170/358/5 176/359/5 169/360/5
f 173/145/6 176/112/6 175/111/6
f 176/112/6 173/145/6 174/146/6
f 179/363/1 178/362/1 177/361/1
f 178/362/1 179/363/1 180/364/1
f 179/333/2 181/332/2 180/331/2
f 181/332/2 179/333/2 182/334/2
f 181/366/3 178/319/3 180/365/3
f 178/319/3 181/366/3 183/367/3
f 184/369/4 179/368/4 177/322/4
f 179/368/4 184/369/4 182/370/4
f 184/343/5 178/342/5 183/341/5
f 178/342/5 184/343/5 177/344/5
f 181/373/6 184/372/6 183/371/6
f 184/372/6 181/373/6 182/374/6
f 187/377/1 186/376/1 185/375/1
f 186/376/1 187/377/1 188/378/1
f 187/381/2 189/380/2 188/379/2
f 189/380/2 187/381/2 190/382/2
f 189/384/3 186/185/3 188/383/3
f 186/185/3 189/384/3 191/354/3
f 192/355/4 187/385/4 185/190/4
f 187/385/4 192/355/4 190/386/4
f 192/389/5 186/388/5 191/387/5
f 186/388/5 192/389/5 185/390/5
f 189/393/6 192/392/6 191/391/6
f 192/392/6 189/393/6 190/394/6
f 193/395/1 188/378/1 187/377/1
f 188/378/1 193/395/1 194/396/1
f 193/381/2 195/380/2 194/379/2
f 195/380/2 193/381/2 196/382/2
f 195/398/3 188/383/3 194/397/3
f 188/383/3 195/398/3 189/384/3
f 190/386/4 193/399/4 187/385/4
f 193/399/4 190/386/4 196/400/4
f 190/389/5 188/388/5 189/387/5
f 188/388/5 190/389/5 187/390/5
f 195/401/6 190/394/6 189/393/6
f 190/394/6 195/401/6 196/402/6
f 197/403/1 194/396/1 193/395/1
f 194/396/1 197/403/1 198/404/1
f 197/381/2 199/380/2 198/379/2
f 199/380/2 197/381/2 200/382/2
f 199/353/3 194/397/3 198/206/3
f 194/397/3 199/353/3 195/398/3
f 196/400/4 197/209/4 193/399/4
f 197/209/4 196/400/4 200/356/4
f 196/389/5 194/388/5 195/387/5
f 194/388/5 196/389/5 193/390/5
f 199/405/6 196/402/6 195/401/6
f 196/402/6 199/405/6 200/406/6
f 161/327/1 202/408/1 201/407/1
f 202/408/1 161/327/1 162/328/1
f 161/333/2 203/409/2 162/331/2
f 203/409/2 161/333/2 204/410/2
f 203/412/3 202/411/3 162/335/3
f 202/411/3 203/412/3 205/413/3
f 206/415/4 161/338/4 201/414/4
f 161/338/4 206/415/4 204/416/4
f 206/418/5 202/342/5 205/417/5
f 202/342/5 206/418/5 201/344/5
f 203/345/6 206/420/6 205/419/6
f 206/420/6 203/345/6 204/346/6
f 209/423/1 208/422/1 207/421/1
f 208/422/1 209/423/1 210/424/1
f 209/427/2 211/426/2 210/425/2
f 211/426/2 209/427/2 212/428/2
f 211/185/3 208/430/3 210/429/3
f 208/430/3 211/185/3 213/186/3
f 214/189/4 209/432/4 207/431/4
f 209/432/4 214/189/4 212/190/4
f 214/435/5 208/434/5 213/433/5
f 208/434/5 214/435/5 207/436/5
f 211/439/6 214/438/6 213/437/6
f 214/438/6 211/439/6 212/440/6
f 217/443/1 216/442/1 215/441/1
f 216/442/1 217/443/1 218/444/1
f 217/427/2 219/426/2 218/425/2
f 219/426/2 217/427/2 220/428/2
f 219/205/3 216/446/3 218/445/3
f 216/446/3 219/205/3 221/206/3
f 222/209/4 217/448/4 215/447/4
f 217/448/4 222/209/4 220/210/4
f 222/435/5 216/434/5 221/433/5
f 216/434/5 222/435/5 215/436/5
f 219/451/6 222/450/6 221/449/6
f 222/450/6 219/451/6 220/452/6
f 223/453/1 180/364/1 179/363/1
f 180/364/1 223/453/1 224/454/1
f 223/333/2 225/409/2 224/331/2
f 225/409/2 223/333/2 226/410/2
f 225/456/3 180/365/3 224/455/3
f 180/365/3 225/456/3 227/457/3
f 228/459/4 223/458/4 179/368/4
f 223/458/4 228/459/4 226/460/4
f 228/418/5 180/342/5 227/417/5
f 180/342/5 228/418/5 179/344/5
f 225/461/6 228/374/6 227/373/6
f 228/374/6 225/461/6 226/462/6
f 23/55/1 22/36/1 21/35/1
f 22/36/1 23/55/1 24/56/1
f 23/58/2 25/38/2 24/57/2
f 25/38/2 23/58/2 26/40/2
f 25/61/3 22/60/3 24/59/3
f 22/60/3 25/61/3 17/10/3
f 18/13/4 23/63/4 21/62/4
f 23/63/4 18/13/4 26/64/4
f 18/49/5 22/65/5 17/47/5
f 22/65/5 18/49/5 21/66/5
f 25/67/6 18/54/6 17/53/6
f 18/54/6 25/67/6 26/68/6

